<svg id="Calque_1" data-name="Calque 1" xmlns="http://www.w3.org/2000/svg" viewBox="0 0 236.31 158.69"><defs><style>.cls-1{fill:#111752;}.cls-2,.cls-3,.cls-4{fill:#203640;}.cls-3{font-size:42px;font-family:Poppins, Poppins;}.cls-4{font-size:24px;font-family:Kanit-Light, Kanit Light;}</style></defs><title>logo-home-letter</title><path class="cls-1" d="M162,291" transform="translate(-640.69 -172.31)"/><path class="cls-1" d="M682,291" transform="translate(-640.69 -172.31)"/><path class="cls-2" d="M656.16,195.95c13.55-6.35,27-12.82,40.71-18.9,6.65-3,13.91-4,21.14-4.53a76.38,76.38,0,0,1,34.47,5.59c7.66,3.08,14.91,7.07,19.89,14.08C775,196,777,206,772.62,213.51a39,39,0,0,1-16.28,13.18c-7.27,3.29-14.33,7-21.52,10.51-5.6,2.7-11.24,5.32-16.9,7.9a8.6,8.6,0,0,0-4.69,7.87c.31,6.4.27,61.46.2,69a9.13,9.13,0,0,1-1.75,4.95c-1.57,2.15-5.88,2.37-8.13.9-8.87-5.81-51.8-33.6-55.73-36.08A13.87,13.87,0,0,1,641,280.46c-.26-4.14-.11-63.66-.3-67.18-.22-4.13.1-8.38,3.92-11.29C645.27,201.52,654,197,656.16,195.95Zm62.66,20.39,31.62-8.12a6.58,6.58,0,0,0,2.49-6.66c-.67-4.31-5.5-8.15-9-10.15C727,183,713,182,699.09,189.87c-3.1,1.63-35.05,16.4-35.46,16.4-5.63,2.73-4.42,5.73-4.42,12.94,0,8.14.36,16.27.46,24.41.08,6.06,0,12.11-.08,18.17q0,4.47-.07,8.93c0,4.05,1,7.31,4.86,9.63,8.56,5.13,16.87,10.67,25.33,16a4.16,4.16,0,0,0,3.14.64c.63-.24,1.07-1.78,1.07-2.75,0-3.32.09-49.3.09-50.22,0-9,10-13,10-13C703.44,231.23,750.32,208.32,750.44,208.22Z" transform="translate(-640.69 -172.31)"/><path class="cls-2" d="M774.89,238.75c-2.89,8.25-44.23,29.37-46.6,30.13-1.49.48-3.66.93-4.87.47-1-.38-1.36-2.09-1.4-3.23-.11-2.91.25-5.83.16-8.73-.1-3.15,1.88-5.3,5.55-6.75,1.47-.59,39.36-18.37,42.83-23a8.3,8.3,0,0,0,1.42-2.38c.33-1.08.61-3.21,2.32-2.24S777.78,230.49,774.89,238.75Z" transform="translate(-640.69 -172.31)"/><path class="cls-2" d="M774.89,265.75c-2.89,8.25-44.23,29.37-46.6,30.13-1.49.48-3.66.93-4.87.47-1-.38-1.36-2.09-1.4-3.23-.11-2.91.25-5.83.16-8.73-.1-3.15,1.88-5.3,5.55-6.75,1.47-.59,39.36-18.37,42.83-23a8.3,8.3,0,0,0,1.42-2.38c.33-1.08.61-3.21,2.32-2.24S777.78,257.49,774.89,265.75Z" transform="translate(-640.69 -172.31)"/><path class="cls-2" d="M774.89,291.75c-2.89,8.25-44.23,29.37-46.6,30.13-1.49.48-3.66.93-4.87.47-1-.38-1.36-2.09-1.4-3.23-.11-2.91.25-5.83.16-8.73-.1-3.15,1.88-5.3,5.55-6.75,1.47-.59,39.36-18.37,42.83-23a8.3,8.3,0,0,0,1.42-2.38c.33-1.08.61-3.21,2.32-2.24S777.78,283.49,774.89,291.75Z" transform="translate(-640.69 -172.31)"/><text class="cls-3" transform="translate(162.65 47.79)">U<tspan x="-0.4" y="79.2">D</tspan></text><text class="cls-4" transform="matrix(1, 0.01, -0.01, 1, 168.87, 81.33)">&amp;</text></svg>